<svg width="226" height="226" viewBox="0 0 226 226" fill="none" xmlns="http://www.w3.org/2000/svg">
<path
    d="M117 185C157.869 185 191 151.869 191 111C191 70.13 157.869 37 117 37C76.13 37 43 70.13 43 111C43 151.869 76.13 185 117 185Z"
    fill="#F0F1F2"
  />
<path d="M85 148H102L95.818 165H91.182L85 148ZM136 148H153L146.818 165H142.182L136 148Z" fill="#9FA5AB" />
<path
    d="M66 74H164.5C166.513 74 167.843 76.066 167.305 78.01L156.736 116.285C156.452 117.307 155.873 118.223 155.07 118.916C154.267 119.61 153.277 120.05 152.224 120.182L90.146 127.87L66 74Z"
    fill="#B6BABF"
  />
<path d="M180.511 149C167.58 170.566 143.976 185 117 185C90.024 185 66.42 170.566 53.489 149H180.51H180.511Z" fill="#D2D5D9" />
<path
    d="M83 65C83 63.9391 83.4214 62.9217 84.1716 62.1716C84.9217 61.4214 85.9391 61 87 61H111C112.061 61 113.078 61.4214 113.828 62.1716C114.579 62.9217 115 63.9391 115 65V91H85C84.4696 91 83.9609 90.7893 83.5858 90.4142C83.2107 90.0391 83 89.5304 83 89V65Z"
    fill="#9FA5AB"
  />
<path
    d="M83 63C83 62.4696 83.2107 61.9609 83.5858 61.5858C83.9609 61.2107 84.4696 61 85 61H113C113.53 61 114.039 61.2107 114.414 61.5858C114.789 61.9609 115 62.4696 115 63V74H83V63Z"
    fill="#828A91"
  />
<path
    d="M85.929 153C82.805 153 79.638 151.533 77.165 149.147C74.162 146.249 72.366 142.11 72.366 138.075C72.366 137.806 72.375 137.545 72.392 137.285C72.618 133.441 74.631 129.909 77.902 127.584L83.612 123.523L57.58 67.597L39.722 61.982C39.2352 61.8295 38.7833 61.5826 38.3921 61.2554C38.0008 60.9282 37.6779 60.5271 37.4417 60.075C37.2055 59.6229 37.0608 59.1287 37.0157 58.6206C36.9706 58.1126 37.0261 57.6006 37.179 57.114C37.3315 56.6274 37.5785 56.1755 37.9058 55.7844C38.233 55.3932 38.6342 55.0704 39.0863 54.8343C39.5383 54.5983 40.0325 54.4536 40.5405 54.4086C41.0485 54.3636 41.5604 54.4191 42.047 54.572L61.528 60.698C62.0419 60.8599 62.5165 61.1272 62.9215 61.4827C63.3264 61.8383 63.6529 62.2743 63.88 62.763L91.994 123.167C92.3758 123.989 92.4583 124.918 92.2271 125.795C91.9959 126.671 91.4656 127.439 90.728 127.965L82.38 133.901C81.052 134.847 80.21 136.278 80.124 137.736C80.115 137.849 80.115 137.962 80.115 138.075C80.115 139.984 81.07 142.136 82.545 143.567C83.135 144.14 84.341 145.077 85.808 145.077H159C161.143 145.077 163 146.857 163 149C163 151.143 161.143 153 159 153H85.929V153Z"
    fill="#0672E5"
  />
<path
    d="M93.5 174C95.7543 174 97.9163 173.104 99.5104 171.51C101.104 169.916 102 167.754 102 165.5C102 163.246 101.104 161.084 99.5104 159.49C97.9163 157.895 95.7543 157 93.5 157C91.2456 157 89.0836 157.895 87.4896 159.49C85.8955 161.084 85 163.246 85 165.5C85 167.754 85.8955 169.916 87.4896 171.51C89.0836 173.104 91.2456 174 93.5 174V174ZM144.5 174C145.616 174 146.722 173.78 147.753 173.353C148.784 172.925 149.721 172.299 150.511 171.51C151.3 170.72 151.926 169.783 152.353 168.752C152.78 167.721 153 166.615 153 165.499C153 164.383 152.78 163.277 152.353 162.246C151.925 161.215 151.299 160.278 150.51 159.488C149.72 158.699 148.783 158.073 147.752 157.646C146.721 157.219 145.615 156.999 144.499 156.999C142.244 156.999 140.082 157.895 138.488 159.489C136.894 161.083 135.999 163.245 135.999 165.5C135.999 167.754 136.895 169.917 138.489 171.511C140.083 173.105 142.245 174 144.5 174V174ZM61.537 60.698L42.047 54.58C41.5604 54.4271 41.0484 54.3716 40.5403 54.4167C40.0323 54.4618 39.5381 54.6065 39.086 54.8427C38.6339 55.0789 38.2328 55.4018 37.9056 55.7931C37.5783 56.1843 37.3314 56.6362 37.179 57.123C37.0261 57.6096 36.9706 58.1215 37.0157 58.6296C37.0608 59.1377 37.2055 59.6318 37.4417 60.0839C37.6779 60.536 38.0008 60.9371 38.3921 61.2644C38.7833 61.5916 39.2352 61.8385 39.722 61.991L57.215 67.492C58.851 65.2916 60.6066 63.1827 62.474 61.175C62.1861 60.9718 61.8706 60.8112 61.537 60.698V60.698Z"
    fill="#194298"
  />
<path
    d="M90.35 93.09L94.493 120.311C94.635 121.243 95.493 121.891 96.429 121.772L133.811 116.904C134.265 116.846 134.678 116.611 134.96 116.25C135.242 115.889 135.369 115.431 135.315 114.976L131.977 87.011C131.949 86.7807 131.876 86.5583 131.761 86.3568C131.646 86.1554 131.492 85.979 131.307 85.8382C131.123 85.6973 130.913 85.5948 130.688 85.5367C130.463 85.4787 130.229 85.4662 130 85.5L91.812 91.112C91.586 91.1455 91.3687 91.2233 91.1728 91.3409C90.9769 91.4585 90.8061 91.6137 90.6703 91.7974C90.5344 91.9812 90.4362 92.19 90.3813 92.4118C90.3263 92.6336 90.3157 92.8641 90.35 93.09V93.09Z"
    fill="#9FA5AB"
  />
<g filter="url(#filter0_d)">
<path
      d="M162 101C179.179 101 193 87.18 193 70C193 52.82 179.179 39 162 39C144.821 39 131 52.82 131 70C131 87.18 144.821 101 162 101Z"
      fill="#EC856F"
    />
<path
      d="M173.962 61.474C174.852 60.584 174.852 58.929 173.962 58.038C173.071 57.148 171.417 57.148 170.526 58.038L150.038 78.526C149.148 79.416 149.148 81.071 150.038 81.962C150.929 82.852 152.583 82.852 153.474 81.962L173.962 61.474V61.474Z"
      fill="white"
    />
<path
      d="M170.526 81.962C171.417 82.852 173.071 82.852 173.962 81.962C174.852 81.071 174.852 79.416 173.962 78.526L153.474 58.038C152.583 57.148 150.929 57.148 150.038 58.038C149.148 58.929 149.148 60.583 150.038 61.474L170.526 81.962V81.962Z"
      fill="white"
    />
</g>
<defs>
<filter id="filter0_d" x="121" y="31" width="82" height="82" filterUnits="userSpaceOnUse" color-interpolation-filters="sRGB">
<feFlood flood-opacity="0" result="BackgroundImageFix" />
<feColorMatrix in="SourceAlpha" type="matrix" values="0 0 0 0 0 0 0 0 0 0 0 0 0 0 0 0 0 0 127 0" result="hardAlpha" />
<feOffset dy="2" />
<feGaussianBlur stdDeviation="5" />
<feColorMatrix type="matrix" values="0 0 0 0 0 0 0 0 0 0 0 0 0 0 0 0 0 0 0.3 0" />
<feBlend mode="normal" in2="BackgroundImageFix" result="effect1_dropShadow" />
<feBlend mode="normal" in="SourceGraphic" in2="effect1_dropShadow" result="shape" />
</filter>
</defs>
</svg>
