<svg width="226" height="226" viewBox="0 0 226 226" fill="none" xmlns="http://www.w3.org/2000/svg">
<path
    d="M113.5 187C154.369 187 187.5 153.869 187.5 113C187.5 72.13 154.369 39 113.5 39C72.63 39 39.5 72.13 39.5 113C39.5 153.869 72.63 187 113.5 187Z"
    fill="#F0F1F2"
  />
<path d="M98.5 127L125.3 31.4C126.1 28.6 128 26.3 130.5 25L122.5 108.6L104.5 129L98.5 127Z" fill="#828A91" />
<path
    d="M108.3 131.7C108.8 130.1 108.2 128.4 106.8 127.3L101.5 123.8C100.8 123.3 99.9 123 99.1 123C97.5 123 96 124 95.4 125.4L85.1 149C83.4 152.9 80.5 156 76.8 158C75.5 158.7 74 159.2 72.6 159.6C64 161.9 57.8 170.2 58.7 179.7C59.5 188.4 66.4 195.6 75.1 196.7C83.3 197.7 90.7 193.5 94.2 187L98.3 180.6C99.7 178.4 99.6 175.7 98.2 173.5C97.1 171.9 96.8 170 97.4 168.1L108.3 131.7ZM77.5 191C70.3 191 64.5 185.2 64.5 178C64.5 170.8 70.3 165 77.5 165C84.7 165 90.5 170.8 90.5 178C90.5 185.2 84.7 191 77.5 191Z"
    fill="#194298"
  />
<path d="M142.5 39H32.5V101H142.5V39Z" fill="#E9AF58" />
<path d="M134.5 47H40.5V93H134.5V47Z" fill="#D9942D" />
<path
    d="M124 56H121V60H124V56ZM124 64H121V68H124V64ZM124 72H121V76H124V72ZM124 80H121V84H124V80ZM124 47H121V52H124V47ZM124 88H121V93H124V88ZM76.9 61.4C77.7 60.6 77.7 59.4 76.9 58.6C76.1 57.8 74.9 57.8 74.1 58.6L54.1 78.6C53.3 79.4 53.3 80.6 54.1 81.4C54.9 82.2 56.1 82.2 56.9 81.4L76.9 61.4V61.4ZM57.5 67.5C54.5 67.5 52 65 52 62C52 59 54.5 56.5 57.5 56.5C60.5 56.5 63 59 63 62C63 65 60.5 67.5 57.5 67.5V67.5ZM57.5 59.5C56.1 59.5 55 60.6 55 62C55 63.4 56.1 64.5 57.5 64.5C58.9 64.5 60 63.4 60 62C60 60.6 58.9 59.5 57.5 59.5V59.5ZM73.5 83.5C70.5 83.5 68 81 68 78C68 75 70.5 72.5 73.5 72.5C76.5 72.5 79 75 79 78C79 81 76.5 83.5 73.5 83.5ZM73.5 75.5C72.1 75.5 71 76.6 71 78C71 79.4 72.1 80.5 73.5 80.5C74.9 80.5 76 79.4 76 78C76 76.6 74.9 75.5 73.5 75.5Z"
    fill="white"
  />
<path d="M124.5 127L97.7 31.4C96.9 28.6 95 26.3 92.5 25L100.5 108.6L118.5 129L124.5 127Z" fill="#D2D5D9" />
<path
    d="M94.7 34.5L112.1 96.7C112.7 98.9 114.7 100.5 117 100.5L97.7 31.5C96.9 28.6 95 26.3 92.5 25L93.1 31.1C93.8 32.1 94.4 33.3 94.7 34.5V34.5Z"
    fill="#E8E9EB"
  />
<path
    d="M110.5 111C111.296 111 112.059 110.684 112.621 110.121C113.184 109.559 113.5 108.796 113.5 108C113.5 107.204 113.184 106.441 112.621 105.879C112.059 105.316 111.296 105 110.5 105C109.704 105 108.941 105.316 108.379 105.879C107.816 106.441 107.5 107.204 107.5 108C107.5 108.796 107.816 109.559 108.379 110.121C108.941 110.684 109.704 111 110.5 111V111Z"
    fill="#828A91"
  />
<path
    d="M150.5 160.7C149 160.3 147.6 159.8 146.3 159.1C142.6 157.1 139.6 153.9 138 150.1L127.7 126.5C126.9 125 125.5 124 123.9 124C123 124 122.2 124.3 121.5 124.8L116.2 128.3C114.9 129.3 114.3 131 114.7 132.7L125.7 169.1C126.2 170.9 125.9 172.9 124.9 174.5C123.5 176.6 123.4 179.4 124.8 181.6L127.4 185.7C129.5 185.3 131.6 184.8 133.6 184.2C132.9 182.6 132.5 180.8 132.5 179C132.5 171.8 138.3 166 145.5 166C150.5 166 154.8 168.8 157 172.9C158.6 171.7 160.2 170.5 161.7 169.1C159.2 165 155.2 162 150.5 160.7V160.7Z"
    fill="#0672E5"
  />
</svg>
